<svg xmlns="http://www.w3.org/2000/svg" width="960" height="480" viewBox="0 0 960 480">
  <rect width="960" height="480" fill="#07111f"/><text x="48" y="60" fill="#f8fafc" font-family="system-ui" font-size="28" font-weight="700">面向智能硬件客服场景的可治理 Agent 平台</text>
  <g font-family="system-ui" font-size="18" text-anchor="middle"><rect x="48" y="160" width="160" height="80" rx="12" fill="#0c4a6e"/><text x="128" y="208" fill="white">用户请求</text><rect x="280" y="120" width="180" height="160" rx="12" fill="#075985"/><text x="370" y="180" fill="white">AgentRunner</text><text x="370" y="215" fill="#bae6fd">Budget · Policy</text><text x="370" y="245" fill="#bae6fd">HITL · Trace</text><rect x="540" y="80" width="180" height="80" rx="12" fill="#166534"/><text x="630" y="128" fill="white">Dense + BM25</text><rect x="540" y="200" width="180" height="80" rx="12" fill="#6d28d9"/><text x="630" y="248" fill="white">Tool Calling</text><rect x="780" y="140" width="130" height="80" rx="12" fill="#9a3412"/><text x="845" y="188" fill="white">答案校验</text></g>
  <g stroke="#38bdf8" stroke-width="4" fill="none"><path d="M208 200h72"/><path d="M460 170L540 120"/><path d="M460 235L540 240"/><path d="M720 120l60 45"/><path d="M720 240l60-35"/></g><text x="48" y="430" fill="#64748b" font-family="system-ui" font-size="18">架构示意图 · 非产品截图</text>
</svg>
