<svg xmlns="http://www.w3.org/2000/svg" width="960" height="480" viewBox="0 0 960 480">
  <rect width="960" height="480" fill="#06131c"/><text x="48" y="60" fill="#f8fafc" font-family="system-ui" font-size="28" font-weight="700">个人招聘知识 Agent · RAG 架构示意图</text>
  <g font-family="system-ui" font-size="18" text-anchor="middle"><rect x="45" y="145" width="150" height="80" rx="12" fill="#0c4a6e"/><text x="120" y="193" fill="white">浏览器 / SSE</text><rect x="260" y="105" width="180" height="160" rx="12" fill="#075985"/><text x="350" y="160" fill="white">FastAPI</text><text x="350" y="198" fill="#bae6fd">会话 · 限流</text><text x="350" y="232" fill="#bae6fd">引用 · 反馈</text><rect x="510" y="70" width="180" height="75" rx="12" fill="#166534"/><text x="600" y="115" fill="white">BGE Embedding</text><rect x="490" y="175" width="220" height="75" rx="12" fill="#6d28d9"/><text x="600" y="220" fill="white">PostgreSQL + pgvector</text><rect x="760" y="125" width="150" height="80" rx="12" fill="#9a3412"/><text x="835" y="174" fill="white">DeepSeek</text></g>
  <g stroke="#38bdf8" stroke-width="4"><path d="M195 185h65"/><path d="M440 155l70-45"/><path d="M440 215h50"/><path d="M690 110l70 45"/><path d="M710 215l50-35"/></g><text x="48" y="430" fill="#64748b" font-family="system-ui" font-size="18">架构示意图 · 非产品截图</text>
</svg>
